<svg width="294" height="382" viewBox="0 0 294 382" fill="none" xmlns="http://www.w3.org/2000/svg">
<path d="M118.727 381.091C94.2424 381.091 73.1515 376.606 55.4545 367.636C37.7576 358.667 24.1212 346.364 14.5455 330.727C4.9697 315.091 0.18182 297.212 0.18182 277.091C0.18182 261.576 3.45455 247.818 10 235.818C16.6667 223.697 25.8182 212.485 37.4545 202.182C49.2121 191.758 62.7273 181.333 78 170.909L131.818 130.909C142.364 124 150.788 116.606 157.091 108.727C163.515 100.848 166.727 90.5455 166.727 77.8182C166.727 68.3636 162.545 59.2121 154.182 50.3636C145.939 41.5151 135.091 37.0909 121.636 37.0909C112.182 37.0909 103.818 39.5151 96.5455 44.3636C89.3939 49.0909 83.7576 55.1515 79.6364 62.5454C75.6364 69.8182 73.6364 77.3333 73.6364 85.0909C73.6364 93.8182 76 102.667 80.7273 111.636C85.5758 120.485 91.697 129.576 99.0909 138.909C106.606 148.121 114.364 157.576 122.364 167.273L293.273 376H241.636L100.545 205.818C87.4545 190.061 75.5758 175.758 64.9091 162.909C54.2424 150.061 45.7576 137.394 39.4545 124.909C33.1515 112.424 30 98.9091 30 84.3636C30 67.6363 33.697 52.9697 41.0909 40.3636C48.6061 27.6363 59.0909 17.7576 72.5455 10.7273C86.1212 3.57575 102 0 120.182 0C138.848 0 154.909 3.63636 168.364 10.9091C181.818 18.0606 192.182 27.5757 199.455 39.4545C206.727 51.2121 210.364 64 210.364 77.8182C210.364 95.6364 205.939 111.091 197.091 124.182C188.242 137.273 176.182 149.455 160.909 160.727L86.7273 216C70 228.364 58.6667 240.364 52.7273 252C46.7879 263.636 43.8182 272 43.8182 277.091C43.8182 288.727 46.8485 299.576 52.9091 309.636C58.9697 319.697 67.5152 327.818 78.5455 334C89.5758 340.182 102.485 343.273 117.273 343.273C131.333 343.273 145.03 340.303 158.364 334.364C171.697 328.303 183.758 319.576 194.545 308.182C205.455 296.788 214.061 283.091 220.364 267.091C226.788 251.091 230 233.091 230 213.091H271.455C271.455 237.818 268.606 258 262.909 273.636C257.212 289.273 250.788 301.515 243.636 310.364C236.485 319.212 230.727 325.818 226.364 330.182C224.909 332 223.576 333.818 222.364 335.636C221.152 337.455 219.818 339.273 218.364 341.091C206.364 354.545 191.212 364.606 172.909 371.273C154.606 377.818 136.545 381.091 118.727 381.091Z" fill="black"/>
</svg>
