<svg width="256" height="256" viewBox="0 0 256 256" fill="none" xmlns="http://www.w3.org/2000/svg">
<path d="M179.211 122.269L99.1102 15.4771C97.4775 13.3114 94.8989 11.7835 91.9401 11.2288C88.9813 10.674 85.884 11.1376 83.3276 12.5178C80.7712 13.8981 78.9644 16.0823 78.3037 18.5913C77.643 21.1002 78.1822 23.7291 79.8032 25.9012L155.994 127.481L79.8032 229.061C78.9923 230.137 78.4395 231.337 78.1763 232.594C77.9132 233.851 77.9449 235.14 78.2696 236.387C78.5943 237.634 79.2058 238.814 80.0688 239.86C80.9319 240.906 82.0296 241.797 83.2992 242.482C84.5688 243.168 85.9853 243.634 87.4676 243.854C88.9499 244.075 90.4689 244.045 91.9375 243.766C93.4062 243.488 94.7957 242.967 96.0265 242.232C97.2573 241.497 98.3052 240.564 99.1102 239.485L179.211 132.693C180.379 131.136 181 129.327 181 127.481C181 125.635 180.379 123.827 179.211 122.269Z" fill="black"/>
</svg>
