<svg width="256" height="256" viewBox="0 0 256 256" fill="none" xmlns="http://www.w3.org/2000/svg">
<path d="M78.789 122.269L158.89 15.4771C160.523 13.3114 163.101 11.7835 166.06 11.2288C169.019 10.674 172.116 11.1376 174.672 12.5178C177.229 13.8981 179.036 16.0823 179.696 18.5913C180.357 21.1002 179.818 23.7291 178.197 25.9012L102.006 127.481L178.197 229.061C179.008 230.137 179.561 231.337 179.824 232.594C180.087 233.851 180.055 235.14 179.73 236.387C179.406 237.634 178.794 238.814 177.931 239.86C177.068 240.906 175.97 241.797 174.701 242.482C173.431 243.168 172.015 243.634 170.532 243.854C169.05 244.075 167.531 244.045 166.063 243.766C164.594 243.488 163.204 242.967 161.974 242.232C160.743 241.497 159.695 240.564 158.89 239.485L78.789 132.693C77.621 131.136 77 129.327 77 127.481C77 125.635 77.621 123.827 78.789 122.269Z" fill="black"/>
</svg>
