<svg width="373" height="595" viewBox="0 0 373 595" fill="none" xmlns="http://www.w3.org/2000/svg">
<path d="M152 595V385.9H0.700003V316.2H149.45V310.25C136.983 302.883 124.8 293.25 112.9 281.35C101.567 268.883 91.3667 255 82.3 239.7C73.8 223.833 67 207.683 61.9 191.25C56.8 174.25 54.25 157.817 54.25 141.95C54.25 97.75 66.15 63.1833 89.95 38.25C114.317 12.75 146.9 -4.05312e-05 187.7 -4.05312e-05C227.367 -4.05312e-05 259.383 12.75 283.75 38.25C308.117 63.1833 320.3 97.75 320.3 141.95C320.3 157.817 317.467 173.967 311.8 190.4C306.7 206.833 299.617 222.983 290.55 238.85C281.483 254.15 271.283 268.033 259.95 280.5C248.617 292.4 236.717 302.317 224.25 310.25V316.2H373V385.9H221.7V595H152ZM187.7 259.25C194.5 259.25 201.583 255.85 208.95 249.05C216.317 241.683 222.833 232.333 228.5 221C234.733 209.1 239.833 196.633 243.8 183.6C248.333 170.567 250.6 158.1 250.6 146.2C250.6 120.7 244.933 101.15 233.6 87.55C222.267 73.3833 206.967 66.3 187.7 66.3C166.733 66.3 150.867 73.3833 140.1 87.55C129.333 101.15 123.95 120.7 123.95 146.2C123.95 157.533 125.933 169.717 129.9 182.75C133.867 195.783 138.967 208.25 145.2 220.15C151.433 231.483 158.233 240.833 165.6 248.2C172.967 255.567 180.333 259.25 187.7 259.25Z" fill="black"/>
</svg>
