<?xml version="1.0" encoding="iso-8859-1"?>
<!-- Generator: Adobe Illustrator 16.0.0, SVG Export Plug-In . SVG Version: 6.00 Build 0)  -->
<!DOCTYPE svg PUBLIC "-//W3C//DTD SVG 1.1//EN" "http://www.w3.org/Graphics/SVG/1.1/DTD/svg11.dtd">
<svg version="1.1" id="Capa_1" xmlns="http://www.w3.org/2000/svg" xmlns:xlink="http://www.w3.org/1999/xlink" x="0px" y="0px"
	 width="187.08px" height="187.08px" viewBox="0 0 187.08 187.08" style="enable-background:new 0 0 187.08 187.08;"
	 xml:space="preserve">
<g>
	<path d="M110.597,43.112c0,0-17.305,26.805-33.256-0.904c-0.316,6.573-5.992,24.847-24.259,24.847
		c-18.271,0-26.369-16.828-25.16-21.242c-1.416,0.758-48.637,27.852-17.074,73.843c0.801-10.93,9.255-16.623,14.386-16.623
		c4.64,0,16.593,1.711,24.274,19.32c3.182-4.615,29.106-20.447,44.925,22.518c1.608-5.724,14.355-46.436,44.936-20.715
		c1.291-5.84,9.377-21.123,22.469-21.123c6.041,0,16.148,6.26,14.377,18.426c4.134-5.535,29.447-45.623-15.271-76.544
		c-1.699,7.134-9.207,22.14-22.47,22.14C126.489,67.043,113.038,59.368,110.597,43.112z"/>
</g>
<g>
</g>
<g>
</g>
<g>
</g>
<g>
</g>
<g>
</g>
<g>
</g>
<g>
</g>
<g>
</g>
<g>
</g>
<g>
</g>
<g>
</g>
<g>
</g>
<g>
</g>
<g>
</g>
<g>
</g>
</svg>
