<?xml version="1.0" encoding="iso-8859-1"?>
<!-- Generator: Adobe Illustrator 19.0.0, SVG Export Plug-In . SVG Version: 6.00 Build 0)  -->
<svg version="1.1" id="Layer_1" xmlns="http://www.w3.org/2000/svg" xmlns:xlink="http://www.w3.org/1999/xlink" x="0px" y="0px"
	 viewBox="0 0 512.001 512.001" style="enable-background:new 0 0 512.001 512.001;" xml:space="preserve">
<g>
	<g>
		<path d="M494.858,79.471c-13.639-18.372-33.554-30.315-56.076-33.627c-30.216-4.444-60.509,7.984-79.45,31.527
			C331.309,66.446,297.001,61.047,256,61.047c-41.002,0-75.309,5.4-103.331,16.324c-18.942-23.542-49.236-35.968-79.45-31.527
			c-22.523,3.312-42.438,15.255-56.076,33.627C3.272,98.157-2.469,121.208,0.976,144.377c4.767,32.055,26.279,58.124,55.484,68.975
			c-2.993,22.508-3.711,45.907-3.711,68.999c0,58.066,19.72,105.863,57.028,138.222c32.058,27.806,76.59,43.732,129.528,46.474
			v-91.593c-20.223-9.534-39.921-33.401-39.921-52.423c0-32.038,35.441-32.038,56.616-32.038s56.616,0,56.616,32.038
			c0,19.022-19.698,42.889-39.921,52.423v91.593c52.938-2.741,97.47-18.668,129.528-46.474
			c37.309-32.359,57.028-80.156,57.028-138.222c0-23.093-0.718-46.491-3.711-68.999c29.204-10.851,50.717-36.919,55.484-68.975
			C514.47,121.208,508.728,98.157,494.858,79.471z M204.061,242.498c-11.291,0-20.481-9.24-20.481-20.637
			c0-11.399,9.189-20.631,20.481-20.631c11.306,0,20.494,9.231,20.494,20.631C224.555,233.259,215.367,242.498,204.061,242.498z
			 M307.785,242.653c-11.402,0-20.649-9.308-20.649-20.792c0-11.483,9.248-20.792,20.649-20.792
			c11.387,0,20.635,9.308,20.635,20.792C328.421,233.344,319.172,242.653,307.785,242.653z"/>
	</g>
</g>
<g>
</g>
<g>
</g>
<g>
</g>
<g>
</g>
<g>
</g>
<g>
</g>
<g>
</g>
<g>
</g>
<g>
</g>
<g>
</g>
<g>
</g>
<g>
</g>
<g>
</g>
<g>
</g>
<g>
</g>
</svg>
