<?xml version="1.0" standalone="no"?>
<!DOCTYPE svg PUBLIC "-//W3C//DTD SVG 20010904//EN"
 "http://www.w3.org/TR/2001/REC-SVG-20010904/DTD/svg10.dtd">
<svg version="1.0" xmlns="http://www.w3.org/2000/svg"
 width="1280.000000pt" height="1105.000000pt" viewBox="0 0 1280.000000 1105.000000"
 preserveAspectRatio="xMidYMid meet">
<metadata>
Created by potrace 1.15, written by Peter Selinger 2001-2017
</metadata>
<g transform="translate(0.000000,1105.000000) scale(0.100000,-0.100000)"
fill="#000000" stroke="none">
<path d="M6268 11040 c-160 -27 -275 -85 -383 -194 -66 -66 -90 -99 -128 -176
-79 -163 -116 -339 -97 -470 22 -149 105 -276 267 -410 l42 -35 11 -414 c5
-228 8 -417 5 -419 -11 -11 -220 65 -320 116 -93 48 -124 70 -201 147 -66 66
-99 107 -122 156 -57 118 -65 168 -66 434 -2 222 -4 245 -25 310 -65 195 -164
329 -371 501 -190 158 -263 196 -385 202 -137 7 -221 -19 -424 -132 -66 -37
-177 -93 -247 -125 -71 -32 -208 -96 -304 -141 -609 -287 -1273 -492 -1870
-579 -329 -48 -424 -54 -930 -56 -267 0 -498 -4 -515 -8 -148 -37 -188 -60
-201 -112 -22 -89 160 -253 433 -389 166 -83 368 -155 538 -190 44 -9 90 -19
103 -22 l22 -4 -27 -42 c-38 -56 -39 -137 -4 -187 75 -105 332 -192 698 -238
121 -15 131 -18 122 -34 -15 -29 -10 -92 10 -125 57 -94 277 -184 493 -204
116 -10 276 2 369 28 l67 19 6 -39 c9 -58 49 -130 92 -168 81 -71 238 -120
384 -120 62 0 192 19 231 35 12 4 14 -1 11 -29 -13 -116 179 -179 678 -221
l75 -6 -76 -79 c-94 -97 -162 -204 -202 -318 -57 -161 -48 -395 20 -539 67
-144 236 -261 510 -357 83 -28 345 -98 461 -122 20 -4 14 -11 -50 -62 -202
-161 -310 -347 -324 -560 -5 -78 -3 -95 21 -162 129 -358 400 -625 799 -791
78 -33 79 -33 55 -48 -47 -31 -135 -113 -187 -174 -198 -230 -229 -504 -84
-742 45 -75 160 -191 272 -276 73 -55 418 -270 453 -282 7 -2 -8 -25 -35 -55
-101 -108 -187 -272 -228 -431 -28 -109 -42 -289 -29 -354 27 -127 103 -227
244 -323 49 -33 82 -62 78 -68 -4 -6 -31 -44 -61 -84 -67 -91 -135 -219 -156
-292 -45 -158 2 -310 152 -485 l60 -70 -20 -50 c-11 -27 -24 -61 -30 -75 -16
-42 -38 -159 -38 -204 0 -66 27 -142 63 -178 18 -18 70 -48 117 -68 l85 -36 5
-154 c6 -168 14 -197 63 -234 23 -17 43 -21 100 -21 95 0 131 16 151 66 9 22
16 49 16 62 0 54 10 65 48 60 51 -6 101 24 132 78 22 40 25 55 25 154 0 105
-1 113 -33 170 l-33 61 30 65 c16 36 35 93 42 127 23 109 -15 195 -123 282
l-56 45 36 11 c142 42 302 174 372 305 38 73 73 239 68 330 -4 82 -46 170
-117 251 -28 31 -51 59 -51 62 0 3 16 28 35 55 48 67 102 186 126 278 23 94
25 242 4 345 -19 93 -79 217 -138 290 l-47 57 68 58 c43 37 127 90 234 147 92
49 196 112 230 141 162 133 272 350 279 545 4 126 -75 319 -188 457 -34 42
-151 141 -198 168 -15 9 -6 15 56 39 99 38 261 123 357 188 107 72 258 225
326 330 111 171 151 300 143 473 -7 184 -67 316 -211 462 l-81 82 70 17 c191
46 415 140 560 234 106 70 264 228 298 300 83 173 71 347 -36 555 -50 96 -144
225 -206 282 l-45 41 55 6 c30 4 129 13 221 21 255 23 373 52 434 111 33 31
36 37 32 84 -1 27 -3 50 -3 50 0 0 35 -7 78 -15 169 -32 419 -10 532 48 100
50 141 109 132 192 l-5 52 64 -13 c171 -36 399 -38 548 -4 134 30 272 103 321
170 27 36 33 96 15 130 -9 17 -5 19 48 25 390 42 625 108 737 206 46 41 65 78
65 126 0 39 -30 115 -49 127 -20 13 -12 23 22 30 17 3 120 35 227 70 107 35
240 78 294 95 55 17 149 56 209 86 429 215 449 378 52 441 -74 12 -222 18
-570 25 -258 4 -483 10 -500 13 -16 3 -106 13 -200 21 -347 33 -645 84 -874
150 -276 80 -859 323 -1273 531 -70 35 -134 64 -142 64 -8 0 -61 27 -118 61
-246 146 -367 192 -503 192 -118 0 -177 -23 -307 -120 -264 -200 -419 -391
-490 -606 l-33 -102 0 -275 0 -276 -39 -78 c-89 -182 -355 -365 -643 -445
l-73 -20 0 37 c0 20 5 217 12 437 l12 399 80 81 c87 86 134 157 167 251 75
212 62 439 -36 641 -87 178 -242 298 -437 337 -81 17 -201 19 -280 6z m-519
-987 c17 -35 29 -63 27 -63 -8 0 -53 82 -61 110 -11 36 -2 23 34 -47z m245
-2359 c8 -3 17 -18 20 -32 3 -15 7 -205 11 -422 3 -217 8 -450 11 -517 l6
-122 -63 4 c-35 3 -136 10 -224 15 -187 13 -669 73 -801 100 -214 44 -336 128
-407 279 -41 87 -49 188 -19 247 40 78 134 145 251 180 103 30 197 35 428 22
465 -25 653 37 642 211 l-4 53 67 -6 c36 -3 73 -9 82 -12z m968 -66 c-5 -65
16 -97 87 -133 120 -60 290 -79 636 -70 288 8 367 -1 450 -50 60 -34 121 -107
141 -167 37 -113 -2 -220 -130 -356 -126 -132 -199 -159 -503 -187 -92 -9
-247 -27 -343 -40 -320 -45 -523 -66 -574 -59 l-49 6 7 192 c3 105 11 346 17
536 6 190 12 346 13 347 5 6 174 31 212 32 l41 1 -5 -52z m38 -1522 c301 -65
467 -162 538 -314 36 -76 37 -208 4 -292 -78 -197 -330 -353 -760 -469 -166
-46 -153 -54 -147 97 5 120 23 764 26 936 l2 79 111 -6 c61 -3 163 -17 226
-31z m-947 -238 c4 -139 10 -393 14 -565 l6 -312 -64 15 c-212 48 -448 159
-576 271 -46 40 -169 208 -200 272 -21 46 -25 65 -20 112 17 185 182 321 487
399 67 17 279 54 336 59 7 1 13 -79 17 -251z m654 -1463 c101 -38 194 -97 252
-161 70 -76 81 -101 82 -183 1 -69 0 -72 -57 -167 -78 -127 -145 -188 -313
-283 l-74 -42 7 313 c8 384 16 548 27 548 5 0 39 -11 76 -25z m-617 -47 c1
-29 5 -192 10 -363 4 -170 7 -311 5 -313 -9 -9 -139 91 -211 163 -105 103
-128 147 -128 240 0 85 16 119 90 191 46 45 196 134 225 134 5 0 9 -24 9 -52z
m1520 -288 c0 -18 -3 -19 -20 -8 -18 12 -19 13 -2 20 9 3 18 7 20 7 1 1 2 -8
2 -19z m-770 -865 c0 -2 -10 -10 -22 -16 -21 -11 -22 -11 -9 4 13 16 31 23 31
12z m-1117 -800 c-3 -9 -8 -14 -10 -11 -3 3 -2 9 2 15 9 16 15 13 8 -4z m1247
-726 c-7 -11 -14 -18 -17 -15 -3 3 0 12 7 21 18 21 23 19 10 -6z"/>
</g>
</svg>
