<?xml version="1.0" standalone="no"?>
<!DOCTYPE svg PUBLIC "-//W3C//DTD SVG 20010904//EN"
 "http://www.w3.org/TR/2001/REC-SVG-20010904/DTD/svg10.dtd">
<svg version="1.0" xmlns="http://www.w3.org/2000/svg"
 width="1035.000000pt" height="1280.000000pt" viewBox="0 0 1035.000000 1280.000000"
 preserveAspectRatio="xMidYMid meet">
<metadata>
Created by potrace 1.15, written by Peter Selinger 2001-2017
</metadata>
<g transform="translate(0.000000,1280.000000) scale(0.100000,-0.100000)"
fill="#000000" stroke="none">
<path d="M5071 12354 c-113 -30 -222 -115 -282 -220 -34 -61 -69 -188 -69
-254 0 -122 53 -265 129 -352 35 -40 41 -52 41 -93 0 -25 7 -60 16 -77 13 -25
17 -80 22 -296 l5 -265 -90 61 c-130 88 -208 163 -278 272 -125 192 -141 227
-165 345 -45 226 -109 370 -193 438 -99 81 -237 126 -389 128 -144 1 -279 -22
-503 -88 -234 -69 -581 -201 -609 -232 -9 -10 -20 -36 -23 -57 -7 -49 -24 -68
-71 -82 -20 -6 -73 -22 -117 -36 -100 -30 -991 -400 -1025 -425 -14 -10 -25
-28 -25 -41 0 -25 6 -23 -145 -65 -85 -23 -777 -274 -890 -323 -96 -41 -92
-70 27 -183 99 -93 164 -138 240 -165 28 -10 59 -24 68 -30 15 -11 15 -14 -4
-33 -37 -37 -21 -80 56 -152 98 -91 225 -162 358 -199 126 -35 177 -64 199
-111 10 -23 43 -61 77 -89 56 -47 104 -72 304 -164 44 -20 95 -52 113 -70 47
-48 127 -87 301 -145 171 -58 196 -69 230 -106 44 -47 148 -91 301 -125 115
-26 157 -42 237 -90 73 -44 159 -74 265 -91 73 -13 77 -18 78 -94 1 -61 52
-231 98 -322 142 -280 387 -552 638 -705 80 -48 237 -127 307 -153 26 -10 47
-19 47 -21 0 -2 -24 -41 -53 -86 -110 -173 -160 -338 -159 -530 1 -314 121
-564 409 -856 111 -112 113 -115 96 -135 -10 -11 -51 -57 -91 -101 -188 -208
-271 -405 -258 -616 9 -155 53 -268 164 -415 55 -75 199 -222 267 -274 28 -22
29 -23 10 -33 -11 -6 -46 -37 -77 -68 -67 -68 -121 -169 -149 -278 -25 -100
-24 -156 5 -217 26 -54 56 -85 241 -245 144 -125 255 -230 255 -242 0 -4 -35
-50 -78 -100 -162 -194 -221 -307 -222 -424 0 -129 42 -205 209 -369 131 -129
132 -134 71 -248 -81 -150 -117 -310 -107 -471 6 -92 28 -177 87 -340 37 -105
36 -144 -11 -230 -36 -69 -36 -76 0 -76 20 0 44 14 79 45 l51 46 5 -33 c3 -18
22 -224 41 -458 20 -234 39 -436 42 -450 l5 -25 8 25 c5 14 28 252 51 530 23
278 44 507 46 509 2 3 11 -6 20 -18 21 -31 102 -81 130 -81 16 0 23 6 23 19 0
11 -5 23 -11 27 -17 10 -49 86 -49 116 0 15 18 72 39 127 22 55 46 132 55 170
40 174 3 429 -86 606 l-26 49 58 76 c197 258 221 542 71 840 l-37 75 117 130
c219 242 262 325 260 505 -1 104 -41 243 -101 359 -46 87 -49 96 -35 115 8 12
43 58 78 104 153 199 247 437 247 626 0 204 -91 423 -247 597 -33 36 -70 80
-82 98 l-23 32 134 138 c192 197 286 346 336 536 74 279 3 585 -194 833 -36
46 -64 85 -62 86 2 1 57 21 123 45 256 91 446 203 610 360 261 251 423 538
452 807 l8 69 68 12 c112 20 199 50 270 94 76 45 144 71 233 89 135 26 262 79
305 125 34 37 58 48 230 106 174 58 254 97 301 145 18 18 69 50 113 70 193 88
243 115 299 161 35 28 68 66 80 90 25 50 75 78 201 113 199 55 435 226 435
315 0 8 -9 24 -21 36 -20 20 -20 21 -2 34 10 8 23 15 29 15 7 0 47 18 90 40
56 28 107 65 175 129 130 122 136 152 39 193 -125 54 -792 295 -905 328 -118
34 -130 39 -130 60 0 13 -12 31 -25 41 -33 24 -912 389 -1015 422 -44 13 -99
31 -122 37 -52 16 -69 34 -76 84 -3 21 -14 47 -23 57 -28 31 -377 164 -611
233 -222 65 -357 88 -501 87 -152 -2 -290 -47 -389 -128 -85 -69 -147 -210
-193 -438 -20 -100 -28 -120 -88 -220 -101 -170 -135 -216 -202 -278 -57 -53
-191 -150 -224 -163 -20 -8 -11 484 11 541 8 22 15 60 15 84 0 39 6 51 43 94
79 87 125 213 125 340 0 318 -277 557 -559 481z m-1079 -3635 c152 -50 243
-59 603 -55 176 2 327 6 336 10 13 6 17 -2 22 -46 7 -51 10 -528 4 -528 -10 0
-306 103 -372 130 -202 81 -391 194 -531 317 -79 69 -191 203 -170 203 9 0 57
-14 108 -31z m2460 4 c-11 -16 -48 -56 -81 -91 -178 -181 -431 -308 -832 -417
-71 -19 -132 -35 -134 -35 -3 0 -4 111 -3 248 3 214 5 246 18 243 8 -2 159 -6
335 -7 359 -4 452 5 601 55 113 38 121 39 96 4z m-1478 -1789 c4 -229 6 -417
4 -420 -2 -2 -38 18 -80 45 -174 112 -228 193 -229 347 -1 123 51 242 148 335
48 47 130 109 143 109 4 0 10 -187 14 -416z m476 321 c221 -162 283 -419 143
-585 -27 -33 -202 -154 -210 -146 -6 5 9 766 15 766 2 0 26 -16 52 -35z m53
-1760 c25 -49 31 -72 31 -126 0 -57 -5 -77 -37 -140 -36 -73 -125 -195 -134
-185 -3 3 -2 144 2 313 l7 308 50 -55 c27 -30 64 -82 81 -115z m-505 -185 l-3
-215 -77 79 c-93 95 -123 150 -114 208 10 62 43 117 115 191 l66 69 8 -59 c4
-32 6 -155 5 -273z m398 -1206 c26 -44 26 -46 10 -82 -9 -20 -26 -48 -36 -62
l-20 -25 0 113 c0 72 4 111 10 107 5 -3 22 -26 36 -51z m-376 -41 c0 -25 -1
-26 -16 -11 -9 9 -13 21 -10 27 13 20 26 11 26 -16z m305 -2243 l-14 -55 4 55
c2 30 8 84 12 120 l8 65 2 -65 c2 -36 -4 -90 -12 -120z"/>
</g>
</svg>
