<?xml version="1.0" standalone="no"?>
<!DOCTYPE svg PUBLIC "-//W3C//DTD SVG 20010904//EN"
 "http://www.w3.org/TR/2001/REC-SVG-20010904/DTD/svg10.dtd">
<svg version="1.0" xmlns="http://www.w3.org/2000/svg"
 width="1280.000000pt" height="1280.000000pt" viewBox="0 0 1280.000000 1280.000000"
 preserveAspectRatio="xMidYMid meet">
<metadata>
Created by potrace 1.15, written by Peter Selinger 2001-2017
</metadata>
<g transform="translate(0.000000,1280.000000) scale(0.100000,-0.100000)"
fill="#000000" stroke="none">
<path d="M6070 12639 c-252 -15 -550 -50 -780 -93 -41 -8 -91 -17 -110 -21
-209 -38 -489 -114 -725 -194 -66 -23 -127 -43 -135 -46 -33 -9 -309 -119
-405 -162 -98 -43 -224 -101 -247 -113 -9 -5 -50 -26 -90 -46 -40 -21 -97 -52
-126 -71 -29 -18 -56 -33 -61 -33 -4 0 -47 -25 -96 -55 -48 -30 -90 -55 -94
-55 -3 0 -24 -12 -46 -27 -22 -15 -52 -34 -67 -43 -41 -22 -205 -133 -268
-180 -30 -23 -98 -74 -151 -113 -53 -40 -111 -84 -130 -100 -136 -111 -190
-156 -229 -193 -25 -23 -58 -54 -75 -69 -154 -138 -387 -383 -555 -585 -146
-175 -410 -527 -410 -547 0 -2 -13 -23 -29 -46 -61 -88 -214 -347 -281 -477
-67 -129 -170 -339 -189 -387 -40 -102 -92 -229 -101 -248 -23 -47 -121 -333
-174 -510 -20 -66 -41 -133 -46 -150 -12 -37 -99 -435 -106 -484 -3 -20 -14
-90 -24 -156 -11 -66 -26 -185 -35 -265 -8 -80 -18 -163 -21 -185 -3 -22 -8
-204 -11 -405 -4 -291 -2 -408 11 -575 15 -185 47 -474 61 -545 3 -14 12 -63
21 -110 120 -671 365 -1345 706 -1940 183 -318 268 -445 523 -777 158 -206
437 -508 660 -714 84 -77 308 -269 355 -304 15 -11 61 -45 101 -75 41 -30 84
-62 96 -70 12 -8 61 -43 110 -77 139 -99 260 -174 503 -314 241 -138 521 -268
855 -396 22 -8 56 -21 75 -29 31 -12 151 -51 353 -113 278 -87 713 -171 1097
-213 180 -20 258 -23 640 -23 383 0 459 3 640 23 532 58 1085 185 1490 342 30
12 66 25 80 30 14 4 41 15 60 23 19 9 64 27 100 41 188 72 590 269 700 343 19
12 38 23 42 23 6 0 96 55 263 161 209 132 585 418 736 559 546 510 854 884
1194 1445 47 78 63 106 151 270 65 121 194 386 194 400 0 2 11 28 24 57 24 53
71 167 108 263 109 284 264 834 284 1010 3 22 7 47 10 55 3 8 8 33 10 55 3 22
9 65 14 95 12 67 35 251 49 380 6 52 15 206 21 342 18 406 -11 876 -76 1258
-14 80 -27 159 -29 175 -3 17 -7 41 -10 55 -3 14 -8 39 -11 55 -40 226 -211
788 -309 1016 -15 35 -33 78 -40 94 -100 235 -234 511 -298 612 -15 24 -27 46
-27 49 0 4 -25 46 -55 94 -30 48 -55 90 -55 94 0 3 -19 34 -41 69 -66 99 -141
210 -161 237 -286 389 -414 541 -693 824 -297 300 -652 584 -1048 837 -59 38
-110 69 -112 69 -3 0 -29 15 -58 34 -159 104 -620 328 -882 429 -181 70 -375
137 -502 173 -48 14 -110 31 -138 39 -48 14 -284 70 -335 80 -14 3 -36 7 -50
10 -476 100 -1086 144 -1590 114z"/>
</g>
</svg>
