<?xml version="1.0" encoding="iso-8859-1"?>
<!-- Generator: Adobe Illustrator 16.0.0, SVG Export Plug-In . SVG Version: 6.00 Build 0)  -->
<!DOCTYPE svg PUBLIC "-//W3C//DTD SVG 1.1//EN" "http://www.w3.org/Graphics/SVG/1.1/DTD/svg11.dtd">
<svg version="1.1" id="Capa_1" xmlns="http://www.w3.org/2000/svg" xmlns:xlink="http://www.w3.org/1999/xlink" x="0px" y="0px"
	 width="93.583px" height="93.583px" viewBox="0 0 93.583 93.583" style="enable-background:new 0 0 93.583 93.583;"
	 xml:space="preserve">
<g>
	<g>
		<path d="M85.658,26.769c-10.399,0-35.628,17.251-38.574,19.735c2.48-2.953,19.732-28.174,19.732-38.578
			C65.758-6.478,50.903,3.152,46.792,3.152S26.77-3.134,26.77,7.926c0,11.053,20.451,38.865,20.023,38.865
			c0-0.428,27.812,20.023,38.865,20.023c11.061,0,4.774-15.909,4.774-20.023C90.432,42.678,100.058,27.826,85.658,26.769z"/>
		<path d="M7.923,26.769c-14.4,1.058-4.771,15.91-4.771,20.023c0,4.114-6.286,20.023,4.771,20.023
			c11.059,0,38.869-20.451,38.869-20.023C46.792,46.261,18.982,26.769,7.923,26.769z"/>
		<path d="M46.792,90.431c4.113,0,18.966,9.631,20.023-4.773c0-11.057-19.495-38.866-20.023-38.866
			c0.428,0-20.023,27.809-20.023,38.866C26.766,96.718,42.679,90.431,46.792,90.431z"/>
	</g>
</g>
<g>
</g>
<g>
</g>
<g>
</g>
<g>
</g>
<g>
</g>
<g>
</g>
<g>
</g>
<g>
</g>
<g>
</g>
<g>
</g>
<g>
</g>
<g>
</g>
<g>
</g>
<g>
</g>
<g>
</g>
</svg>
