<?xml version="1.0" standalone="no"?>
<!DOCTYPE svg PUBLIC "-//W3C//DTD SVG 20010904//EN"
 "http://www.w3.org/TR/2001/REC-SVG-20010904/DTD/svg10.dtd">
<svg version="1.0" xmlns="http://www.w3.org/2000/svg"
 width="1280.000000pt" height="1109.000000pt" viewBox="0 0 1280.000000 1109.000000"
 preserveAspectRatio="xMidYMid meet">
<metadata>
Created by potrace 1.15, written by Peter Selinger 2001-2017
</metadata>
<g transform="translate(0.000000,1109.000000) scale(0.100000,-0.100000)"
fill="#000000" stroke="none">
<path d="M1858 10924 c-331 -51 -661 -199 -923 -414 -85 -70 -254 -243 -316
-325 -296 -387 -448 -859 -425 -1320 42 -833 376 -1513 1166 -2375 175 -191
1059 -1077 1583 -1587 l467 -456 0 -693 0 -694 -867 -2 -868 -3 -3 -360 -2
-360 238 -238 238 -237 632 0 632 0 1 -632 2 -633 242 -238 241 -237 341 0
c188 0 348 3 357 6 14 6 16 91 16 870 l0 864 868 2 867 3 3 360 2 360 -237
237 -238 238 -630 2 -630 3 -3 458 -2 457 222 218 c949 926 1243 1218 1642
1631 l158 163 412 -409 c226 -225 579 -572 784 -772 l372 -364 0 -693 0 -694
-865 0 -865 0 -2 -360 -3 -360 240 -240 240 -240 628 0 627 0 0 -628 0 -628
243 -242 243 -242 343 0 c217 0 349 4 362 10 19 10 19 31 19 870 l0 860 863 2
862 3 3 365 2 365 -232 232 -233 233 -632 0 -633 0 0 464 0 464 508 494 c603
589 1383 1374 1572 1583 690 763 1008 1358 1112 2080 21 144 17 557 -6 680
-59 323 -187 613 -387 883 -102 136 -708 742 -846 845 -247 184 -498 298 -789
358 -127 27 -481 37 -647 20 -261 -28 -485 -90 -697 -192 -204 -98 -433 -263
-594 -427 l-59 -61 -101 94 c-201 187 -349 292 -551 390 -298 145 -584 205
-978 205 -270 0 -444 -30 -672 -115 l-97 -37 -107 40 c-122 45 -286 86 -416
103 -132 17 -528 6 -670 -19 -436 -77 -745 -234 -1094 -554 l-115 -105 -85 83
c-363 352 -761 540 -1253 593 -134 15 -474 12 -580 -5z m1063 -1213 c205 -44
360 -109 534 -225 165 -111 286 -217 547 -480 131 -132 240 -238 242 -235 3 2
121 119 263 259 238 236 373 355 496 439 27 18 51 31 53 28 3 -3 -2 -33 -11
-68 -50 -192 -69 -512 -45 -746 53 -519 249 -1016 595 -1508 47 -66 85 -123
85 -126 0 -7 -1312 -1339 -1665 -1689 l-236 -235 -542 545 c-857 862 -1113
1136 -1327 1424 -349 469 -510 904 -510 1380 0 156 18 269 61 392 151 429 516
763 931 854 122 26 381 22 529 -9z m4785 0 c376 -73 648 -251 1119 -733 105
-107 197 -198 204 -202 9 -6 86 66 249 231 259 261 382 369 542 476 252 168
485 243 795 253 139 5 173 3 264 -15 107 -23 240 -71 316 -116 67 -39 138
-179 193 -384 23 -87 26 -113 26 -286 0 -153 -5 -215 -23 -319 -78 -446 -279
-831 -678 -1301 -179 -212 -423 -464 -1302 -1348 l-835 -838 -474 473 c-505
504 -962 973 -962 987 0 5 34 58 76 118 394 562 588 1101 610 1693 18 469
-113 900 -384 1269 l-55 74 110 -6 c59 -3 154 -15 209 -26z m-1128 -433 c34
-118 43 -192 43 -345 -1 -290 -51 -528 -168 -803 -47 -108 -142 -290 -153
-290 -11 0 -69 234 -84 340 -23 158 -30 342 -17 447 23 184 103 391 215 554
58 83 126 168 137 169 3 0 16 -33 27 -72z"/>
</g>
</svg>
