<svg width="350" height="350" viewBox="0 0 350 350" fill="none" xmlns="http://www.w3.org/2000/svg">
<path d="M156.667 216.911V284.333C156.667 298.832 162.461 312.737 172.776 322.988C183.09 333.24 197.08 339 211.667 339H230V302.556H211.667C206.804 302.556 202.141 300.636 198.703 297.218C195.265 293.801 193.333 289.166 193.333 284.333V209.622C193.335 201.95 190.901 194.474 186.378 188.257C181.855 182.041 175.474 177.401 168.143 175C175.474 172.599 181.855 167.959 186.378 161.743C190.901 155.526 193.335 148.05 193.333 140.378V65.6667C193.333 60.8338 195.265 56.1989 198.703 52.7816C202.141 49.3643 206.804 47.4444 211.667 47.4444H230V11H211.667C197.08 11 183.09 16.7595 172.776 27.0115C162.461 37.2635 156.667 51.1682 156.667 65.6667V133.089C156.667 140.338 153.769 147.29 148.612 152.416C143.455 157.542 136.46 160.422 129.167 160.422H120V189.578H129.167C136.46 189.578 143.455 192.458 148.612 197.584C153.769 202.71 156.667 209.662 156.667 216.911Z" fill="black"/>
</svg>
