<svg width="350" height="350" viewBox="0 0 350 350" fill="none" xmlns="http://www.w3.org/2000/svg">
<path d="M193.333 216.911V284.333C193.333 298.832 187.539 312.737 177.224 322.988C166.91 333.24 152.92 339 138.333 339H120V302.556H138.333C143.196 302.556 147.859 300.636 151.297 297.218C154.735 293.801 156.667 289.166 156.667 284.333V209.622C156.665 201.95 159.099 194.474 163.622 188.257C168.145 182.041 174.526 177.401 181.857 175C174.526 172.599 168.145 167.959 163.622 161.743C159.099 155.526 156.665 148.05 156.667 140.378V65.6667C156.667 60.8338 154.735 56.1989 151.297 52.7816C147.859 49.3643 143.196 47.4444 138.333 47.4444H120V11H138.333C152.92 11 166.91 16.7595 177.224 27.0115C187.539 37.2635 193.333 51.1682 193.333 65.6667V133.089C193.333 140.338 196.231 147.29 201.388 152.416C206.545 157.542 213.54 160.422 220.833 160.422H230V189.578H220.833C213.54 189.578 206.545 192.458 201.388 197.584C196.231 202.71 193.333 209.662 193.333 216.911Z" fill="black"/>
</svg>
