<?xml version="1.0" encoding="utf-8"?>
<!-- Svg Vector Icons : http://www.onlinewebfonts.com/icon -->
<!DOCTYPE svg PUBLIC "-//W3C//DTD SVG 1.1//EN" "http://www.w3.org/Graphics/SVG/1.1/DTD/svg11.dtd">
<svg version="1.1" xmlns="http://www.w3.org/2000/svg" xmlns:xlink="http://www.w3.org/1999/xlink" x="0px" y="0px" viewBox="0 0 1000 1000" enable-background="new 0 0 1000 1000" xml:space="preserve">
<metadata> Svg Vector Icons : http://www.onlinewebfonts.com/icon </metadata>
<g><g transform="translate(0.000000,511.000000) scale(0.100000,-0.100000)"><path d="M1015.8,3941c-217.9-24.2-363.1-92.8-514.4-242.1C204.9,3406.5,100,3005.1,100,2151.8c0-677.8,62.5-1071.1,230-1458.4c96.8-223.9,197.7-369.1,385.3-554.7c248.1-246.1,556.8-399.4,919.8-455.9c82.7-12.1,161.4-26.2,177.5-32.3c18.2-4-28.2-58.5-123-147.2c-451.9-415.6-645.5-931.9-552.7-1466.5c78.7-457.9,294.5-851.3,661.6-1208.3c274.3-268.3,587-445.8,917.8-524.5c197.7-46.4,520.4-42.4,722.2,10.1c538.6,139.2,1071.1,603.1,1456.4,1266.8c54.5,90.8,100.9,165.4,106.9,165.4s52.4-74.6,106.9-165.4c300.6-518.4,718.1-942,1127.6-1143.8c244.1-119,443.8-165.4,712.1-165.4c464,0,867.4,177.5,1256.7,556.8c548.7,532.5,792.8,1232.5,639.5,1837.7c-72.6,286.4-292.5,627.3-554.7,861.3c-145.2,129.1-155.3,113,100.9,157.3c693.9,119,1176,566.8,1381.8,1280.9c92.8,320.7,115,512.4,125.1,1063.1c14.1,724.2-30.3,1053-189.6,1387.8c-98.8,203.7-290.5,399.4-455.9,461.9c-486.2,179.5-1159.9,2-1930.5-512.4C6458.2,2789.2,5500,1784.6,5070.4,1002c-32.3-58.5-62.5-106.9-68.6-106.9s-36.3,48.4-68.6,106.9c-342.9,623.3-1085.3,1462.5-1807.4,2041.4C2355.2,3662.7,1554.4,4003.6,1015.8,3941z"/></g></g>
</svg>