<?xml version="1.0" standalone="no"?>
<!DOCTYPE svg PUBLIC "-//W3C//DTD SVG 20010904//EN"
 "http://www.w3.org/TR/2001/REC-SVG-20010904/DTD/svg10.dtd">
<svg version="1.0" xmlns="http://www.w3.org/2000/svg"
 width="1033.000000pt" height="1280.000000pt" viewBox="0 0 1033.000000 1280.000000"
 preserveAspectRatio="xMidYMid meet">
<metadata>
Created by potrace 1.15, written by Peter Selinger 2001-2017
</metadata>
<g transform="translate(0.000000,1280.000000) scale(0.100000,-0.100000)"
fill="#000000" stroke="none">
<path d="M5527 12793 c-4 -3 -7 -94 -7 -202 -1 -218 -7 -251 -70 -354 -36 -60
-53 -80 -361 -423 -403 -451 -695 -798 -899 -1069 -426 -567 -743 -929 -1264
-1450 -343 -343 -577 -558 -826 -760 -74 -61 -197 -163 -273 -228 -76 -64
-152 -124 -169 -133 -29 -15 -43 -15 -182 1 -609 68 -825 99 -1072 150 -20 5
-34 2 -42 -7 -9 -12 11 -29 110 -93 175 -113 331 -174 444 -175 17 0 38 -7 45
-17 8 -9 58 -51 111 -95 53 -43 99 -82 102 -87 3 -5 -21 -39 -55 -76 -33 -37
-58 -69 -56 -72 3 -2 37 12 76 31 39 20 85 36 104 36 34 0 26 5 395 -276 144
-110 188 -129 297 -128 86 1 167 23 399 111 65 25 121 41 125 36 126 -179 210
-319 293 -488 183 -374 203 -633 58 -769 -27 -25 -65 -53 -84 -63 -30 -14 -94
-89 -84 -98 2 -1 64 35 139 80 75 45 172 97 215 116 l79 34 250 -1 c468 -2
864 -66 1273 -205 146 -50 388 -154 398 -171 4 -5 -7 -24 -24 -41 -47 -50
-219 -270 -318 -407 -339 -468 -604 -938 -779 -1380 -90 -227 -251 -458 -475
-680 -242 -240 -523 -407 -792 -469 -186 -44 -457 -44 -668 -1 -345 70 -650
243 -873 495 -365 412 -555 1043 -559 1852 l-1 228 41 155 c106 408 238 725
405 976 79 119 216 269 311 341 65 48 189 113 218 113 23 0 38 30 38 78 0 78
-54 88 -202 39 -747 -250 -1195 -1059 -1308 -2359 -13 -141 -6 -245 35 -534
121 -843 404 -1490 850 -1939 351 -354 793 -571 1342 -661 206 -33 650 -30
843 7 79 15 336 103 443 151 487 219 951 589 1372 1093 87 103 250 316 289
378 10 15 26 27 35 27 9 0 61 -26 116 -57 l100 -58 44 -86 45 -86 -46 -53
c-61 -70 -94 -132 -119 -227 -18 -66 -22 -111 -24 -283 -2 -210 -10 -271 -45
-340 -29 -56 -68 -88 -127 -106 -149 -44 -172 -121 -92 -310 81 -193 107 -320
114 -570 6 -214 29 -358 62 -385 9 -8 13 -36 13 -84 0 -81 19 -157 48 -189 20
-22 52 -134 52 -183 0 -15 4 -34 9 -42 7 -11 12 -4 20 25 15 57 31 161 33 222
l3 53 68 -53 c87 -69 143 -157 127 -201 -18 -53 -12 -117 15 -163 21 -35 24
-50 19 -91 -4 -26 -16 -67 -27 -90 -23 -48 -17 -65 13 -38 43 39 71 123 115
337 52 253 54 239 -70 363 -136 136 -155 169 -191 325 -13 58 -15 122 -12 367
l3 298 49 120 c55 137 132 290 196 386 l43 67 51 -15 c67 -19 243 -103 325
-155 36 -22 112 -76 168 -119 99 -77 104 -79 157 -79 31 0 88 6 128 12 57 10
72 10 76 0 5 -16 55 -42 80 -42 10 0 27 -9 37 -20 25 -28 85 -64 92 -56 10 9
-18 84 -49 133 -15 24 -28 50 -28 58 0 8 -11 22 -25 31 -14 9 -25 21 -25 26 0
14 82 128 111 154 13 12 40 24 59 27 30 4 40 0 68 -29 25 -26 41 -34 68 -34
31 0 46 -10 105 -67 63 -61 69 -64 69 -41 0 66 -50 154 -146 258 -33 35 -50
60 -41 60 8 0 20 7 27 15 11 13 16 11 37 -20 33 -49 53 -57 128 -49 63 7 67 6
96 -22 17 -16 42 -48 56 -72 35 -59 50 -40 23 30 -32 87 -87 158 -160 205 -35
24 -73 54 -85 68 -19 25 -26 26 -121 28 l-102 2 -51 -48 c-38 -36 -57 -47 -69
-41 -9 4 -55 11 -101 15 -46 5 -106 16 -132 24 -27 9 -76 20 -109 25 -70 10
-339 137 -403 190 l-38 32 47 87 c68 126 165 272 226 338 30 32 75 92 101 134
66 107 65 123 -24 279 -241 425 -278 548 -267 902 l3 116 157 160 156 160 123
16 c209 28 428 66 496 87 l65 20 187 -120 c249 -159 407 -254 505 -303 73 -37
88 -41 155 -41 71 0 74 -1 92 -31 10 -17 22 -47 25 -66 3 -19 17 -46 31 -60
13 -14 43 -56 66 -94 23 -38 48 -71 55 -74 30 -10 -2 191 -47 290 -17 37 -31
70 -31 73 0 3 15 5 33 5 44 0 138 25 186 50 l39 19 6 -30 c3 -16 23 -47 44
-67 28 -27 43 -54 53 -90 15 -62 32 -62 40 -1 l5 44 13 -30 c7 -16 15 -63 18
-102 3 -40 10 -73 14 -73 35 0 40 183 9 299 -21 80 -27 166 -10 156 6 -3 10
-19 10 -35 0 -44 9 -58 54 -89 44 -31 66 -83 66 -156 0 -36 13 -47 24 -19 3 9
6 50 6 92 0 63 -7 97 -38 187 l-38 110 -70 37 c-38 21 -76 38 -85 38 -8 0 -26
-11 -39 -25 -17 -18 -34 -25 -60 -25 -20 0 -83 -7 -141 -16 -118 -18 -326 -11
-392 12 -51 18 -110 65 -159 127 -29 38 -36 52 -26 58 24 15 64 9 113 -17 63
-33 235 -69 235 -49 0 4 -9 23 -21 41 -22 37 -192 164 -218 164 -9 0 4 20 36
53 28 28 58 67 68 85 16 32 18 33 58 26 32 -5 52 -17 83 -51 29 -31 49 -44 65
-43 43 4 50 0 110 -57 57 -54 59 -55 59 -29 0 36 -51 134 -103 198 -24 30 -47
65 -50 78 -4 14 -22 49 -42 78 -19 30 -35 56 -35 59 0 2 10 3 22 1 13 -2 30
-19 43 -42 27 -49 60 -67 106 -60 51 7 93 -29 116 -102 9 -30 20 -54 25 -54
13 0 9 83 -7 137 -10 34 -33 70 -68 109 -28 33 -69 83 -90 111 -43 59 -62 67
-189 77 -72 6 -77 5 -95 -17 -17 -22 -24 -24 -75 -19 -51 4 -61 1 -88 -21 -16
-14 -40 -29 -52 -32 -13 -4 -45 -30 -73 -59 -65 -67 -146 -107 -227 -113 l-63
-5 -72 94 c-39 51 -85 106 -101 121 -27 26 -28 30 -18 70 6 25 33 70 62 107
111 139 159 251 179 413 8 62 19 133 24 157 6 25 11 66 11 91 0 38 9 61 53
130 240 383 571 675 842 744 128 32 271 14 394 -50 160 -84 318 -284 270 -341
-11 -13 -27 -14 -96 -9 l-83 7 0 -27 c0 -15 21 -79 46 -143 47 -118 90 -269
80 -279 -8 -8 -74 35 -91 60 l-15 21 0 -24 c1 -37 33 -103 75 -149 41 -45 44
-54 71 -253 13 -90 18 -195 18 -393 l1 -270 -32 -69 c-18 -37 -33 -74 -33 -81
0 -8 18 -16 43 -20 54 -9 92 -29 146 -76 65 -58 91 -54 137 21 20 33 41 60 46
60 5 0 7 9 3 20 -5 15 0 21 21 26 l27 7 -23 17 c-17 13 -21 23 -17 42 7 26 31
38 75 38 31 0 28 10 -15 46 -30 26 -35 35 -29 57 6 25 11 27 54 27 l47 0 -32
26 c-50 38 -44 85 12 98 l30 8 -23 17 c-18 13 -22 23 -17 43 10 40 32 42 44 5
25 -77 72 -290 83 -372 12 -100 26 -127 49 -99 30 36 20 213 -27 474 l-6 35
61 -3 c50 -3 63 -8 72 -25 12 -22 9 -26 -58 -75 -40 -29 -21 -42 58 -42 61 0
70 -2 67 -17 -2 -10 -18 -27 -35 -39 -36 -24 -33 -34 7 -34 49 0 90 -12 90
-27 0 -8 -11 -25 -25 -38 l-24 -25 41 0 c35 0 40 -2 35 -20 -4 -15 0 -20 15
-20 11 0 40 -20 65 -45 24 -25 53 -45 63 -45 24 0 101 98 141 180 48 96 61
284 26 370 -5 14 -13 78 -17 143 -5 70 -13 123 -20 132 -11 13 -9 20 13 43 37
39 47 73 54 181 4 78 14 123 54 241 27 80 52 174 55 210 7 72 -5 74 -26 5 -16
-53 -50 -113 -67 -119 -8 -4 -25 18 -47 62 -56 113 -80 205 -112 432 -28 200
-80 368 -154 498 -29 49 -58 64 -45 22 10 -30 8 -241 -2 -251 -6 -6 -21 6 -40
33 -38 54 -176 189 -268 264 -113 91 -322 238 -429 299 -55 32 -144 86 -199
121 -117 74 -151 87 -317 114 -69 11 -160 28 -202 37 -65 13 -91 14 -168 4
-100 -13 -278 -56 -407 -100 -46 -15 -82 -23 -80 -17 3 6 47 76 99 156 52 80
121 188 154 241 l59 96 74 7 c41 3 106 6 145 6 73 0 92 7 146 55 19 17 42 24
100 28 41 4 102 16 135 27 33 11 227 70 430 131 592 176 609 183 715 279 l35
31 -55 -4 c-30 -3 -124 -28 -209 -57 -166 -56 -191 -57 -210 -7 -5 13 -18 140
-30 283 -33 414 -34 468 -16 564 24 132 29 177 17 184 -5 3 -26 -16 -47 -42
-38 -50 -161 -160 -236 -210 -55 -38 -352 -333 -514 -512 -167 -184 -520 -510
-636 -587 l-38 -25 -178 9 c-98 6 -186 13 -195 18 -16 6 -18 0 -18 -58 l0 -65
-52 -46 c-28 -25 -83 -60 -122 -78 -165 -77 -345 -169 -405 -208 -109 -71
-509 -264 -805 -390 -55 -23 -134 -49 -175 -56 -184 -35 -232 -56 -317 -136
l-31 -29 -169 8 -169 8 120 96 c159 127 340 260 393 290 28 15 62 49 94 92 58
81 104 106 244 137 75 16 93 24 115 50 28 33 45 40 239 91 131 35 274 61 295
53 17 -7 51 10 90 46 17 15 79 53 140 85 126 65 518 300 648 387 89 60 151
126 208 223 48 83 46 83 -108 8 l-118 -57 -125 0 c-136 -1 -200 13 -318 65
-238 106 -471 357 -636 686 -56 112 -397 874 -509 1138 -168 396 -229 574
-307 888 -92 374 -143 501 -183 460z m4071 -6505 c19 -19 14 -45 -10 -51 -28
-8 -29 -6 -22 31 7 35 13 39 32 20z m34 -102 c13 -19 9 -27 -22 -39 -40 -15
-38 -24 9 -37 54 -14 61 -45 18 -82 -18 -15 -37 -27 -43 -28 -12 0 -49 173
-41 194 5 12 15 14 39 9 18 -3 36 -11 40 -17z"/>
</g>
</svg>
