<?xml version="1.0" standalone="no"?>
<!DOCTYPE svg PUBLIC "-//W3C//DTD SVG 20010904//EN"
 "http://www.w3.org/TR/2001/REC-SVG-20010904/DTD/svg10.dtd">
<svg version="1.0" xmlns="http://www.w3.org/2000/svg"
 width="1280.000000pt" height="1144.000000pt" viewBox="0 0 1280.000000 1144.000000"
 preserveAspectRatio="xMidYMid meet">
<metadata>
Created by potrace 1.15, written by Peter Selinger 2001-2017
</metadata>
<g transform="translate(0.000000,1144.000000) scale(0.100000,-0.100000)"
fill="#000000" stroke="none">
<path d="M10630 11425 c-110 -31 -227 -113 -355 -246 -72 -76 -100 -110 -188
-231 -35 -48 -182 -165 -390 -312 l-169 -118 -81 21 c-448 112 -1127 54 -1968
-169 -1070 -284 -2300 -825 -2794 -1231 -38 -31 -131 -112 -205 -179 -442
-399 -518 -464 -713 -604 -344 -248 -755 -443 -1182 -560 -49 -13 -178 -41
-285 -61 -461 -85 -765 -170 -1120 -313 -432 -173 -1035 -513 -1111 -627 -84
-124 -87 -363 -7 -655 111 -407 391 -1007 791 -1695 964 -1657 2575 -3762
3298 -4309 156 -119 248 -153 324 -122 118 50 308 210 428 362 335 426 599
1162 743 2074 22 142 26 202 29 430 1 146 8 310 14 365 43 381 134 695 293
1010 78 154 107 197 307 445 287 359 591 776 881 1210 289 434 427 618 575
766 217 219 486 363 825 440 153 35 149 36 189 -43 42 -81 124 -185 187 -237
118 -98 294 -177 464 -207 36 -6 155 -12 265 -14 277 -4 482 -37 700 -112 325
-113 566 -305 687 -549 45 -92 76 -121 232 -228 264 -179 566 -238 747 -146
35 18 36 18 85 -6 195 -96 365 -7 449 235 14 39 25 76 25 83 0 6 18 39 40 72
52 82 104 196 132 292 29 103 31 285 4 384 -36 131 -70 183 -237 360 -407 432
-638 717 -810 1001 -138 229 -202 402 -245 663 -47 294 -80 359 -267 543 -133
130 -193 214 -255 361 -40 94 -44 111 -39 162 7 81 45 149 119 212 167 141
264 259 341 413 87 174 128 350 128 547 0 204 -37 298 -117 298 -47 0 -77 -31
-193 -196 -108 -153 -275 -320 -386 -386 -97 -58 -245 -115 -245 -94 0 25 47
139 114 276 95 193 175 454 176 568 0 37 -3 44 -27 53 -47 18 -144 20 -203 4z"/>
</g>
</svg>
