<svg width="417" height="252" viewBox="0 0 417 252" fill="none" xmlns="http://www.w3.org/2000/svg">
<path d="M314.101 0C286.61 0 260.779 13.0688 241.757 36.3427L208.479 75.393L175.754 36.9155C156.348 13.1209 130.475 0 102.941 0C75.4081 0 49.577 13.1729 30.1718 36.9155C10.724 60.7101 0 92.3148 0 126.002C0 159.585 10.6814 191.242 30.1718 214.985C49.577 238.779 75.4081 251.9 102.941 251.9C130.432 251.9 156.306 238.831 175.286 215.505L208.521 176.507L241.289 214.985C260.694 238.779 286.568 251.9 314.101 251.9C341.634 251.9 367.423 238.831 386.828 214.985C406.276 191.242 417 159.585 417 125.898C417 92.2106 406.319 60.658 386.828 36.8113C367.423 13.0688 341.592 0 314.101 0ZM133.581 163.438C117.197 183.484 88.6854 183.484 72.3016 163.438C64.0884 153.389 59.6201 140.112 59.6201 125.95C59.6201 111.788 64.1309 98.5107 72.3867 88.4097C80.5147 78.3608 91.4089 72.8938 102.984 72.8938C114.559 72.8938 125.411 78.4129 134.092 88.9825L165.583 126.002L133.581 163.438ZM344.741 163.438C328.357 183.536 300.271 184.005 283.036 162.918L251.545 125.898L283.461 88.4097C299.845 68.3639 328.4 68.3639 344.784 88.3577C352.997 98.4586 357.465 111.736 357.465 125.898C357.465 140.008 352.912 153.389 344.741 163.438Z" fill="black"/>
</svg>
