<?xml version="1.0" standalone="no"?>
<!DOCTYPE svg PUBLIC "-//W3C//DTD SVG 20010904//EN"
 "http://www.w3.org/TR/2001/REC-SVG-20010904/DTD/svg10.dtd">
<svg version="1.0" xmlns="http://www.w3.org/2000/svg"
 width="960.000000pt" height="1280.000000pt" viewBox="0 0 960.000000 1280.000000"
 preserveAspectRatio="xMidYMid meet">
<metadata>
Created by potrace 1.15, written by Peter Selinger 2001-2017
</metadata>
<g transform="translate(0.000000,1280.000000) scale(0.100000,-0.100000)"
fill="#000000" stroke="none">
<path d="M4664 12668 c-65 -73 -325 -341 -578 -596 l-459 -463 6 -42 c3 -23
19 -107 36 -187 l31 -145 -23 -22 c-12 -12 -69 -42 -127 -68 -649 -286 -1220
-863 -1498 -1516 -86 -201 -170 -478 -207 -684 -22 -120 -32 -642 -16 -850 35
-462 265 -1040 577 -1446 150 -195 364 -409 561 -562 188 -145 404 -270 677
-391 l59 -26 -6 -58 c-4 -31 -22 -145 -41 -252 -20 -107 -38 -209 -41 -226 -5
-30 -2 -33 147 -130 84 -54 251 -172 371 -262 121 -89 236 -173 258 -185 l39
-22 0 -337 c0 -186 -2 -338 -5 -338 -6 0 -637 452 -850 609 -550 405 -839 669
-1325 1206 -557 616 -758 945 -975 1589 -152 451 -168 553 -169 1046 0 391 5
441 60 662 67 267 164 514 286 733 130 232 227 361 440 580 173 179 306 296
456 403 64 45 131 94 147 107 l30 25 -30 -6 c-136 -26 -519 -153 -740 -246
-232 -97 -463 -226 -575 -321 -73 -62 -195 -184 -264 -267 -445 -525 -733
-1135 -860 -1820 -48 -259 -51 -296 -50 -700 0 -346 2 -399 22 -528 98 -629
304 -1155 653 -1672 209 -309 361 -479 1054 -1180 485 -490 688 -702 836 -870
139 -159 166 -209 199 -373 10 -48 20 -90 23 -93 6 -7 396 273 984 708 51 37
95 68 98 68 5 0 225 -157 322 -230 l62 -47 -22 -20 c-39 -36 -214 -164 -617
-452 -522 -374 -728 -530 -782 -590 -95 -105 -156 -273 -143 -391 21 -194 98
-327 245 -425 105 -70 134 -77 307 -73 132 3 153 6 196 27 119 58 228 169 286
291 24 52 26 64 26 205 l0 150 -36 76 -37 77 367 251 366 252 6 -103 c4 -57 7
-343 8 -635 l1 -532 -32 -17 c-44 -23 -164 -146 -222 -227 -130 -183 -152
-473 -53 -691 78 -170 251 -323 431 -383 71 -23 97 -27 211 -27 106 0 145 4
209 22 251 72 426 230 501 453 40 120 46 278 16 404 -41 172 -128 306 -266
410 l-76 57 3 628 c2 346 6 631 9 635 8 7 62 -26 313 -198 330 -224 416 -288
416 -308 0 -10 -11 -51 -24 -91 -67 -198 -33 -407 86 -543 110 -125 231 -179
403 -179 178 -1 315 66 419 204 129 172 134 421 12 617 -65 105 -20 70 -861
672 -324 233 -591 428 -593 435 -6 26 339 276 381 276 13 0 102 -60 212 -141
534 -397 858 -630 865 -622 3 4 16 46 28 93 30 115 97 248 176 347 78 97 283
311 726 758 851 860 958 981 1207 1355 216 326 349 591 463 926 305 894 275
1855 -85 2735 -205 501 -578 1038 -905 1302 -250 201 -620 373 -1116 516 -169
49 -264 71 -264 63 0 -4 71 -56 157 -117 483 -337 774 -665 1003 -1130 253
-513 330 -924 290 -1560 -15 -245 -51 -408 -167 -755 -171 -514 -339 -822
-691 -1267 -83 -105 -410 -465 -637 -702 -211 -220 -524 -495 -815 -715 -129
-98 -697 -506 -901 -648 l-97 -67 -6 31 c-3 17 -6 162 -6 322 l0 291 283 212
c155 116 340 250 410 298 94 64 126 91 123 103 -16 53 -87 443 -89 484 l-2 49
70 28 c153 60 524 273 660 379 176 136 415 373 558 552 258 322 472 788 562
1225 56 271 74 637 46 900 -62 570 -283 1114 -628 1545 -96 121 -379 400 -507
502 -132 105 -321 219 -563 341 -116 58 -183 98 -183 107 0 8 18 94 39 190
l39 175 -386 390 c-213 215 -480 484 -593 598 l-205 209 -120 -134z m-854
-2024 c0 -3 11 -83 25 -177 56 -392 102 -846 127 -1272 16 -281 16 -1278 0
-1550 -41 -683 -123 -1415 -159 -1415 -9 0 -121 58 -198 103 -516 299 -899
767 -1089 1329 -45 132 -93 329 -106 432 -13 106 -13 551 1 674 55 506 305
1008 699 1402 174 174 341 299 560 417 107 58 140 72 140 57z m2026 -10 c106
-44 331 -187 439 -277 188 -160 418 -407 517 -558 220 -334 347 -679 389
-1059 17 -159 15 -512 -5 -655 -42 -298 -155 -620 -316 -895 -80 -136 -221
-312 -374 -465 -225 -224 -354 -321 -613 -457 l-111 -59 -6 28 c-32 161 -111
841 -126 1081 -39 641 -36 1705 5 2193 41 494 107 1058 130 1127 6 16 25 15
71 -4z"/>
</g>
</svg>
