<svg width="294" height="294" viewBox="0 0 294 294" fill="none" xmlns="http://www.w3.org/2000/svg">
<path d="M235.953 97.1695C224.345 97.1695 214.898 109.812 214.898 125.357C214.898 126.735 215.061 128.054 215.204 129.378C210.385 132.56 204.662 137.432 199.367 142.309L192.041 107.168C201.386 103.664 208.301 92.2977 208.301 78.6859C208.301 62.3172 198.354 49 186.124 49C173.897 49 163.95 62.3172 163.95 78.6859C163.95 85.4422 165.712 91.6104 168.561 96.6075L145.862 126.386L125.447 99.604C128.304 94.6069 130.063 88.4387 130.063 81.6824C130.063 65.3136 120.115 51.9964 107.885 51.9964C95.6586 51.9964 85.7115 65.3136 85.7115 81.6824C85.7115 95.2881 92.6265 106.666 101.968 110.164L94.6417 145.305C89.3422 140.423 83.62 135.562 78.8009 132.375C78.9431 131.05 79.1062 129.732 79.1062 128.358C79.1062 112.807 69.6634 100.165 58.0557 100.165C46.4481 100.165 37 112.808 37 128.36C37 143.906 46.4466 156.547 58.0542 156.547C59.7229 156.547 61.3265 156.221 62.8853 155.736C63.9112 159.054 65.1728 162.738 66.626 166.96C68.8118 173.287 72.8736 185.067 72.9836 188.571V229.219V234.377C72.9836 240.796 76.8703 246 81.6654 246H212.335C217.129 246 221.016 240.797 221.016 234.377V229.219V185.611C221.126 182.075 225.192 170.283 227.374 163.957C228.827 159.745 230.089 156.062 231.114 152.726C232.669 153.227 234.276 153.549 235.95 153.549C247.557 153.549 257 140.907 257 125.356C257.003 109.817 247.561 97.1695 235.953 97.1695Z" fill="#010002"/>
</svg>
