<svg width="307" height="290" viewBox="0 0 307 290" fill="none" xmlns="http://www.w3.org/2000/svg">
<path d="M48.1469 289.97C46.2896 289.97 44.7418 289.408 43.5036 288.284C42.2997 287.159 41.8526 285.71 42.2309 283.934L55.198 217.478H6.04691C4.18956 217.478 2.64176 216.916 1.40353 215.791C0.199689 214.667 -0.247452 213.217 0.130898 211.441L7.14757 175.196C7.52592 173.42 8.48899 171.97 10.1056 170.846C11.7222 169.722 13.4419 169.16 15.2993 169.16H64.4503L74.0123 120.84H24.8612C22.7975 120.84 21.2153 120.278 20.0803 119.154C18.9452 118.03 18.5668 116.58 18.9452 114.804L25.9619 78.5583C26.1339 77.4339 26.6498 76.4279 27.5097 75.5402C28.3695 74.6526 29.3327 73.9425 30.4677 73.3507C31.6027 72.7885 32.8066 72.4926 34.1136 72.4926H83.2646L96.1971 6.03612C96.5756 4.26079 97.5392 2.81094 99.1557 1.68657C100.738 0.562192 102.492 0 104.349 0H146.484C148.341 0 149.889 0.562192 151.127 1.68657C152.331 2.81094 152.777 4.26079 152.4 6.03612L139.467 72.4926H195.634L208.567 6.03612C208.946 4.26079 209.909 2.81094 211.525 1.68657C213.107 0.562192 214.861 0 216.719 0H258.854C260.71 0 262.259 0.562192 263.497 1.68657C264.7 2.81094 265.148 4.26079 264.769 6.03612L251.803 72.4926H300.954C302.811 72.4926 304.359 73.0548 305.597 74.1791C306.8 75.3035 307.248 76.7534 306.869 78.5288L299.852 114.775C299.68 115.9 299.165 116.906 298.305 117.793C297.48 118.681 296.447 119.39 295.209 119.983C294.006 120.545 292.836 120.84 291.701 120.84H242.55L232.988 169.16H282.139C283.446 169.16 284.616 169.455 285.647 170.017C286.679 170.58 287.367 171.319 287.745 172.178C288.124 173.065 288.227 174.071 288.021 175.196L281.004 211.441C280.625 213.217 279.663 214.667 278.046 215.791C276.464 216.916 274.71 217.478 272.853 217.478H223.735L210.803 283.934C210.631 285.058 210.115 286.064 209.256 286.952C208.395 287.84 207.433 288.55 206.297 289.142C205.162 289.704 203.959 290 202.651 290H160.517C158.659 290 157.112 289.438 155.874 288.314C154.669 287.19 154.223 285.74 154.6 283.964L167.533 217.478H111.366L98.433 283.934C98.0545 285.71 97.0918 287.159 95.4753 288.284C93.8932 289.408 92.139 289.97 90.2814 289.97H48.1469ZM120.619 169.16H176.786L186.347 120.84H130.18L120.619 169.16Z" fill="black"/>
</svg>
