<svg width="256" height="256" viewBox="0 0 256 256" fill="none" xmlns="http://www.w3.org/2000/svg">
<path d="M127.33 222.198C125.681 224.926 123.017 226.888 119.924 227.655C116.83 228.422 113.559 227.931 110.826 226.29C108.955 225.167 65 197.989 65 128C65 58.0107 108.955 30.833 110.826 29.71C113.549 28.0755 116.809 27.5871 119.891 28.3518C122.974 29.1165 125.627 31.0719 127.271 33.7895C128.914 36.5072 129.413 39.7655 128.658 42.8503C127.903 45.9352 125.957 48.5951 123.244 50.2471C121.715 51.2012 89 72.3027 89 128C89 183.817 121.855 204.889 123.254 205.759C124.603 206.569 125.778 207.638 126.713 208.903C127.648 210.168 128.324 211.606 128.703 213.133C129.082 214.66 129.155 216.247 128.92 217.802C128.684 219.358 128.144 220.852 127.33 222.198Z" fill="black"/>
</svg>
