<svg width="256" height="256" viewBox="0 0 256 256" fill="none" xmlns="http://www.w3.org/2000/svg">
<path d="M125.174 29.71C122.451 28.062 119.185 27.563 116.095 28.3229C113.004 29.0827 110.342 31.0391 108.694 33.7618C107.046 36.4844 106.547 39.7501 107.307 42.8406C108.067 45.9312 110.023 48.5932 112.746 50.2412C114.145 51.1113 147 72.1826 147 128C147 183.817 114.145 204.889 112.826 205.71C110.097 207.347 108.13 210.002 107.358 213.089C106.586 216.177 107.073 219.445 108.71 222.174C110.347 224.903 113.002 226.87 116.089 227.642C119.177 228.414 122.445 227.927 125.174 226.29C127.045 225.167 171 197.989 171 128C171 58.0107 127.045 30.833 125.174 29.71Z" fill="black"/>
</svg>
