<?xml version="1.0" standalone="no"?>
<!DOCTYPE svg PUBLIC "-//W3C//DTD SVG 20010904//EN"
 "http://www.w3.org/TR/2001/REC-SVG-20010904/DTD/svg10.dtd">
<svg version="1.0" xmlns="http://www.w3.org/2000/svg"
 width="1280.000000pt" height="1257.000000pt" viewBox="0 0 1280.000000 1257.000000"
 preserveAspectRatio="xMidYMid meet">
<metadata>
Created by potrace 1.15, written by Peter Selinger 2001-2017
</metadata>
<g transform="translate(0.000000,1257.000000) scale(0.100000,-0.100000)"
fill="#000000" stroke="none">
<path d="M6550 12488 c-237 -7 -458 -22 -575 -38 -38 -5 -128 -17 -200 -25
-338 -40 -723 -116 -1040 -205 -446 -125 -878 -312 -1176 -509 -669 -443
-1148 -1102 -1347 -1851 -74 -278 -105 -538 -104 -875 1 -597 81 -1067 357
-2080 34 -124 155 -478 205 -596 165 -392 254 -510 595 -794 312 -259 404
-372 600 -740 252 -472 467 -760 847 -1130 162 -158 189 -189 221 -254 20 -40
37 -81 37 -91 0 -10 -25 -35 -57 -57 -106 -74 -191 -111 -313 -137 -63 -13
-136 -33 -162 -45 -157 -67 -346 -204 -638 -461 -340 -299 -496 -405 -740
-502 -163 -65 -522 -173 -838 -253 -185 -46 -405 -115 -535 -166 -102 -41
-299 -139 -327 -164 -8 -7 -71 -42 -140 -77 -461 -234 -839 -617 -1060 -1073
-54 -113 -120 -276 -135 -337 l-7 -28 6357 0 6357 0 -69 77 c-181 203 -421
412 -713 620 -223 159 -370 243 -425 243 -20 0 -34 4 -31 9 11 16 -32 41 -254
149 -448 217 -776 345 -1195 466 -154 45 -167 50 -172 63 -15 39 196 932 298
1258 59 189 110 329 123 337 20 13 249 60 451 93 264 42 467 88 578 130 221
83 356 195 433 360 52 113 65 175 71 345 7 196 -7 256 -106 461 -135 280 -135
353 -4 619 49 98 58 125 61 183 7 108 -26 169 -166 315 -23 24 -42 46 -42 49
0 3 18 26 41 50 53 58 79 116 79 180 0 74 -25 132 -116 269 -112 171 -136 223
-142 308 -7 122 19 171 200 370 99 110 134 174 150 272 22 145 -23 271 -141
392 -83 86 -151 136 -349 258 -86 53 -220 144 -297 202 -353 265 -527 445
-587 607 -32 87 -31 242 2 385 33 138 35 354 6 440 -52 152 -137 279 -356 532
-167 193 -202 255 -359 629 -209 497 -630 994 -1106 1304 -94 62 -307 185
-319 185 -2 0 -42 17 -88 39 -357 167 -809 273 -1220 287 -95 3 -177 7 -183 8
-5 1 -111 -2 -235 -6z"/>
</g>
</svg>
