<?xml version='1.0' encoding='iso-8859-1'?>
<!DOCTYPE svg PUBLIC '-//W3C//DTD SVG 1.1//EN' 'http://www.w3.org/Graphics/SVG/1.1/DTD/svg11.dtd'>
<svg version="1.1" xmlns="http://www.w3.org/2000/svg" viewBox="0 0 512 512" xmlns:xlink="http://www.w3.org/1999/xlink" enable-background="new 0 0 512 512">
  <path d="m256,0c-136.82,0-240,94.705-240,220.282 0,41.013 15.789,133.218 16.461,137.124 2.625,15.218 15.742,26.397 31.188,26.569 44.645,0.487 48.189,13.858 48.352,27.885v58.412c0,15.796 11.531,29.233 27.148,31.631 0.926,0.141 8.929,1.35 20.852,2.893v-24.454c0-8.835 7.164-15.999 16-15.999s16,7.164 16,15.999v28.153c15.256,1.548 32.037,2.906 48,3.506v-31.659c0-8.835 7.164-15.999 16-15.999s16,7.164 16,15.999v31.625c15.512-0.641 32.464-2.054 48-3.634v-27.99c0-8.835 7.164-15.999 16-15.999s16,7.164 16,15.999v24.343c11.714-1.471 19.641-2.607 20.586-2.743 15.741-2.283 27.413-15.774 27.413-31.672v-55.149c-0.294-14.152 4.638-19.131 6.266-20.766 7.063-7.086 21.547-10.742 41.102-10.39 15.836,0.789 29.492-10.976 32.172-26.561 0.671-3.905 16.46-96.11 16.46-137.123 0-125.577-103.18-220.282-240-220.282zm-80,287.981c-26.511,0-48-20.891-48-46.664s21.489-33.331 48-33.331 48,7.558 48,33.331-21.489,46.664-48,46.664zm123.789,59.215c-3.031,4.875-8.25,7.554-13.602,7.554-2.883,0-5.805-0.773-8.43-2.414l-21.757-13.523-21.758,13.523c-7.516,4.664-17.375,2.351-22.031-5.14-4.664-7.499-2.367-17.366 5.141-22.03l30.203-18.772c5.172-3.218 11.719-3.218 16.891,0l30.203,18.772c7.507,4.663 9.804,14.53 5.14,22.03zm36.211-59.215c-26.511,0-48-20.891-48-46.664s21.489-33.331 48-33.331 48,7.558 48,33.331-21.489,46.664-48,46.664z"/>
</svg>
