<?xml version="1.0" encoding="iso-8859-1"?>
<!-- Generator: Adobe Illustrator 19.0.0, SVG Export Plug-In . SVG Version: 6.00 Build 0)  -->
<svg version="1.1" id="Layer_1" xmlns="http://www.w3.org/2000/svg" xmlns:xlink="http://www.w3.org/1999/xlink" x="0px" y="0px"
	 viewBox="0 0 512 512" style="enable-background:new 0 0 512 512;" xml:space="preserve">
<g>
	<g>
		<path d="M447.482,168.016c-3.942-7.885-11.999-12.865-20.815-12.865H309.174L369.908,33.68c3.609-7.213,3.221-15.782-1.018-22.643
			C364.648,4.177,357.157,0,349.091,0H209.454c-8.816,0-16.873,4.98-20.815,12.865L64.518,261.107
			c-3.606,7.213-3.221,15.782,1.018,22.643c4.242,6.862,11.732,11.037,19.797,11.037h126.363l-40.511,189.062
			c-2.292,10.687,3.164,21.527,13.11,26.056c3.108,1.413,6.389,2.095,9.635,2.095c7.148,0,14.119-3.299,18.627-9.311
			l232.727-310.302C450.572,185.336,451.424,175.899,447.482,168.016z"/>
	</g>
</g>
<g>
</g>
<g>
</g>
<g>
</g>
<g>
</g>
<g>
</g>
<g>
</g>
<g>
</g>
<g>
</g>
<g>
</g>
<g>
</g>
<g>
</g>
<g>
</g>
<g>
</g>
<g>
</g>
<g>
</g>
</svg>
