<?xml version="1.0" encoding="iso-8859-1"?>
<!-- Generator: Adobe Illustrator 16.0.0, SVG Export Plug-In . SVG Version: 6.00 Build 0)  -->
<!DOCTYPE svg PUBLIC "-//W3C//DTD SVG 1.1//EN" "http://www.w3.org/Graphics/SVG/1.1/DTD/svg11.dtd">
<svg version="1.1" id="Capa_1" xmlns="http://www.w3.org/2000/svg" xmlns:xlink="http://www.w3.org/1999/xlink" x="0px" y="0px"
	 width="327.523px" height="327.524px" viewBox="0 0 327.523 327.524" style="enable-background:new 0 0 327.523 327.524;"
	 xml:space="preserve">
<g>
	<path d="M327.381,112.058c-0.162-1.044-0.493-2.066-0.896-3.05c-0.09-0.213-0.09-0.43-0.186-0.646
		c-0.012-0.012-0.03-0.036-0.036-0.048c0-0.024-0.012-0.036-0.024-0.051l-36.221-76.91c-0.084-0.177-0.24-0.336-0.336-0.516
		c-0.126-0.216-0.168-0.48-0.307-0.694c-0.276-0.468-0.654-0.832-0.979-1.249c-0.33-0.429-0.631-0.892-0.997-1.272
		c-0.54-0.564-1.159-1.045-1.789-1.514c-0.396-0.312-0.769-0.657-1.201-0.91c-0.732-0.441-1.525-0.756-2.33-1.057
		c-0.402-0.153-0.792-0.387-1.213-0.504c-1.249-0.352-2.546-0.553-3.891-0.553H162.999h-99.49c-1.267,0-2.495,0.177-3.69,0.489
		c-0.417,0.111-0.798,0.328-1.21,0.469c-0.732,0.276-1.483,0.517-2.17,0.91C56,25.205,55.64,25.543,55.231,25.82
		c-0.589,0.417-1.198,0.816-1.721,1.321c-0.369,0.363-0.663,0.792-0.991,1.201c-0.387,0.454-0.84,0.865-1.156,1.381L2.173,106.635
		c-0.183,0.3-0.27,0.64-0.436,0.958c-0.141,0.252-0.375,0.468-0.498,0.744c-0.129,0.289-0.135,0.592-0.258,0.868
		c-0.264,0.705-0.474,1.408-0.64,2.138c-0.123,0.579-0.228,1.146-0.288,1.717c-0.069,0.72-0.063,1.438-0.027,2.165
		c0.045,0.592,0.087,1.174,0.18,1.75c0.129,0.708,0.352,1.372,0.577,2.054c0.204,0.58,0.387,1.159,0.661,1.706
		c0.09,0.189,0.129,0.405,0.219,0.6c0.258,0.48,0.639,0.856,0.955,1.288c0.252,0.375,0.405,0.769,0.693,1.105l148.676,175.607
		c2.564,3.026,6.407,5.176,10.238,5.067c0.048,0,0.097,0.024,0.129,0.024c0.214,0.012,0.418,0.012,0.634,0.012
		c0.006,0,0.006,0,0.006,0s0.012,0,0.024,0c1.285,0,2.546-0.24,3.759-0.564c0.36-0.114,0.685-0.228,1.045-0.366
		c0.895-0.312,1.766-0.732,2.594-1.225c0.276-0.162,0.57-0.324,0.841-0.505c0.979-0.679,1.897-1.459,2.69-2.401L324.15,123.773
		c0.191-0.228,0.3-0.504,0.468-0.745c0.24-0.303,0.541-0.555,0.745-0.898c0.216-0.339,0.324-0.72,0.504-1.083
		c0.253-0.465,0.492-0.934,0.679-1.438c0.282-0.732,0.475-1.475,0.643-2.219c0.108-0.505,0.229-0.985,0.276-1.489
		c0.096-0.829,0.06-1.637,0-2.459C327.429,112.956,327.452,112.502,327.381,112.058z"/>
</g>
<g>
</g>
<g>
</g>
<g>
</g>
<g>
</g>
<g>
</g>
<g>
</g>
<g>
</g>
<g>
</g>
<g>
</g>
<g>
</g>
<g>
</g>
<g>
</g>
<g>
</g>
<g>
</g>
<g>
</g>
</svg>
