<?xml version="1.0" encoding="iso-8859-1"?>
<!-- Uploaded to: SVG Repo, www.svgrepo.com, Generator: SVG Repo Mixer Tools -->
<svg height="800px" width="800px" version="1.1" id="Capa_1" xmlns="http://www.w3.org/2000/svg" xmlns:xlink="http://www.w3.org/1999/xlink" 
	 viewBox="0 0 283.196 283.196" xml:space="preserve">
<g>
	<path style="fill:#010002;" d="M240.861,283.196H42.335c-6.005,0-10.878-4.873-10.878-10.878V10.878C31.457,4.873,36.33,0,42.335,0
		h198.526c6.005,0,10.878,4.873,10.878,10.878v261.44C251.739,278.328,246.866,283.196,240.861,283.196z"/>
	<path style="fill:#010002;" d="M215.428,233.82H67.763c-5.619,0-10.171-4.553-10.171-10.176V46.384
		c0-5.619,4.552-10.176,10.171-10.176h147.665c5.619,0,10.171,4.552,10.171,10.176v177.259
		C225.604,229.267,221.046,233.82,215.428,233.82z"/>
	<circle style="fill:#010002;" cx="141.598" cy="259.715" r="8.838"/>
	<circle style="fill:#010002;" cx="141.598" cy="18.509" r="2.643"/>
</g>
</svg>