<svg width="757" height="757" viewBox="0 0 757 757" fill="none" xmlns="http://www.w3.org/2000/svg">
<path d="M339.273 0.547759C310.684 6.27045 282.217 17.9222 254.273 26.3062C236.802 31.5479 215.363 34.856 199.273 43.4398C176.229 55.7338 155.595 78.7962 135.273 95.2231C119.291 108.141 97.7591 121.175 84.9071 137.196C68.4671 157.691 57.7611 186.789 45.4921 210.026C35.885 228.222 20.531 248.25 14.91 268.026C12.46 276.646 12.997 287.093 12.104 296.026L6.10405 357.026C4.28405 375.232 -1.95995 397.925 0.613051 416.026C4.20505 441.293 16.2111 467.554 23.5531 492.026C29.7351 512.63 33.5661 538.056 43.6871 557.026C55.5641 579.289 77.846 599.502 93.849 619.026C107.433 635.6 120.735 657.989 137.443 671.392C158.319 688.138 187.734 698.602 211.273 711.335C228.969 720.907 248.938 735.893 268.273 741.389C289.082 747.303 314.699 746.038 336.273 748.195C353.585 749.926 370.994 751.245 388.273 753.312C397.067 754.363 408.561 757.248 417.273 755.504C445.862 749.782 474.329 738.13 502.273 729.746C519.744 724.504 541.183 721.196 557.273 712.612C580.317 700.318 600.951 677.256 621.273 660.829C637.255 647.911 658.787 634.877 671.639 618.856C688.079 598.361 698.785 569.263 711.054 546.026C720.661 527.83 736.015 507.802 741.636 488.026C744.086 479.406 743.549 468.959 744.442 460.026L750.442 399.026C752.262 380.82 758.506 358.127 755.933 340.026C752.34 314.759 740.335 288.498 732.993 264.026C726.811 243.422 722.98 217.997 712.859 199.026C700.982 176.763 678.7 156.55 662.697 137.026C649.113 120.452 635.811 98.0631 619.103 84.6604C598.227 67.9145 568.812 57.4497 545.273 44.7174C527.577 35.1456 507.608 20.1585 488.273 14.6634C467.464 8.74955 441.847 10.0143 420.273 7.85715C402.961 6.12605 385.552 4.80705 368.273 2.74063C359.479 1.68887 347.985 -1.19614 339.273 0.547759Z" fill="#7A9CA1"/>
<path d="M351.255 117.27C335.56 120.84 318.403 134.311 304.255 141.962C275.69 157.411 246.546 171.9 218.255 187.847C208.374 193.416 198.233 198.566 188.255 203.962C183.851 206.344 178.049 208.085 175.098 212.376C169 221.245 167.414 236.021 164.23 246.271C156.168 272.218 148.343 298.247 140.535 324.271C134.929 342.956 129.141 361.587 123.535 380.271C121.471 387.152 116.305 397.049 117.078 404.271C118.362 416.25 130.608 430.576 136.007 441.271C152.663 474.264 170.476 506.947 188.394 539.271C193.71 548.861 198.73 558.626 203.946 568.271C206.328 572.675 208.069 578.477 212.36 581.428C221.229 587.526 236.005 589.112 246.255 592.296C272.202 600.358 298.231 608.183 324.255 615.991C343.272 621.696 362.278 627.461 381.255 633.296C387.775 635.3 398.452 640.819 405.255 639.272C420.95 635.702 438.107 622.231 452.255 614.58C480.82 599.131 509.964 584.642 538.255 568.695C548.136 563.126 558.277 557.976 568.255 552.58C572.659 550.198 578.461 548.458 581.412 544.166C587.51 535.297 589.096 520.521 592.281 510.271C600.342 484.324 608.167 458.295 615.975 432.271C621.581 413.586 627.369 394.955 632.975 376.271C635.039 369.39 640.205 359.493 639.432 352.271C638.148 340.292 625.902 325.966 620.503 315.271C603.847 282.278 586.034 249.595 568.116 217.271C562.8 207.681 557.78 197.916 552.564 188.271C550.182 183.867 548.442 178.065 544.15 175.114C535.281 169.016 520.505 167.43 510.255 164.245C484.308 156.184 458.279 148.359 432.255 140.551C413.238 134.846 394.232 129.081 375.255 123.246C368.735 121.242 358.058 115.723 351.255 117.27Z" fill="#E5FFFF"/>
</svg>
