<svg width="199" height="205" viewBox="0 0 199 205" fill="none" xmlns="http://www.w3.org/2000/svg">
<path d="M109.068 0.0542909C104.193 0.927292 99.2902 3.02103 94.5387 4.45217C82.4844 8.08224 70.4673 11.8588 58.3917 15.4114C53.3 16.9094 48.2252 18.4826 43.1533 20.0508C41.134 20.675 38.2012 20.957 36.5583 22.3965C33.2646 25.2825 31.0799 32.093 29.056 36.0205C24.1347 45.5698 18.8764 54.9357 14.0036 64.5117C10.9464 70.5197 7.77502 76.5101 4.52569 82.41C3.11136 84.9783 0.373053 88.5776 0.0491485 91.5418C-0.465768 96.2564 3.20633 103.415 4.47573 107.979C8.27612 121.645 12.3699 135.224 16.1703 148.89C17.3575 153.159 18.6343 157.403 19.8137 161.674C20.3283 163.537 20.6245 166.261 22.0389 167.651C25.3024 170.858 31.0228 172.93 35.0025 175.109C43.1944 179.594 51.2959 184.268 59.4549 188.817C66.7962 192.91 74.0554 197.168 81.4265 201.204C83.7481 202.475 87.1902 205.436 89.9317 204.946C94.8069 204.073 99.7098 201.979 104.461 200.548C116.516 196.918 128.533 193.141 140.608 189.589C145.7 188.091 150.775 186.517 155.847 184.949C157.866 184.325 160.799 184.043 162.442 182.603C165.735 179.717 167.92 172.907 169.944 168.98C174.865 159.43 180.124 150.064 184.996 140.488C188.054 134.48 191.225 128.49 194.474 122.59C195.889 120.022 198.627 116.422 198.951 113.458C199.466 108.744 195.794 101.585 194.524 97.0209C190.724 83.355 186.63 69.7756 182.83 56.1104C181.642 51.8408 180.366 47.5974 179.186 43.3259C178.672 41.4634 178.375 38.7388 176.961 37.3489C173.698 34.1422 167.977 32.07 163.997 29.8912C155.806 25.406 147.704 20.7316 139.545 16.1829C132.204 12.09 124.945 7.83203 117.573 3.79614C115.252 2.52536 111.81 -0.43627 109.068 0.0542909Z" fill="#6A898D"/>
<path d="M106.6 26.04C102.211 26.704 97.7119 28.6412 93.4652 29.9494C84.8448 32.6057 76.2009 35.2094 67.5513 37.7628C63.9936 38.8133 60.4548 39.9294 56.9017 40.9959C55.294 41.4783 53.0661 41.7145 51.7647 42.8653C49.1446 45.1824 47.4073 50.4125 45.8067 53.5474C42.2405 60.5306 38.4421 67.3982 34.783 74.3306C32.3396 78.9602 29.8753 83.581 27.3886 88.1861C26.2881 90.2239 24.3691 92.7759 24.0599 95.1138C23.5413 99.0371 26.5288 105.207 27.6719 108.969C30.6087 118.634 33.2913 128.406 36.0076 138.139C37.1113 142.093 37.8536 149.413 40.467 152.53C42.2731 154.685 45.992 155.87 48.3821 157.253C54.9582 161.061 61.6965 164.574 68.2613 168.402C73.8818 171.679 79.5931 174.848 85.3006 177.962C87.3396 179.075 89.9743 181.327 92.4003 180.96C96.789 180.296 101.288 178.359 105.535 177.051C114.155 174.395 122.799 171.791 131.449 169.237C135.006 168.187 138.545 167.071 142.098 166.004C143.706 165.522 145.934 165.285 147.235 164.135C149.855 161.818 151.593 156.588 153.193 153.453C156.76 146.469 160.558 139.602 164.217 132.669C166.66 128.04 169.125 123.419 171.611 118.814C172.712 116.776 174.631 114.224 174.94 111.886C175.459 107.963 172.471 101.792 171.328 98.0307C168.391 88.3658 165.709 78.5941 162.992 68.8614C161.889 64.9075 161.146 57.5874 158.533 54.4696C156.727 52.315 153.008 51.1304 150.618 49.7467C144.042 45.939 137.303 42.4259 130.739 38.5981C125.118 35.3213 119.407 32.1521 113.699 29.0379C111.66 27.9254 109.026 25.6728 106.6 26.04Z" fill="#E8FFFF"/>
</svg>
