<svg width="520" height="520" viewBox="0 0 520 520" fill="none" xmlns="http://www.w3.org/2000/svg">
<g filter="url(#filter0_d_2_90)">
<path d="M254.161 376L254.611 376.667L254.161 376Z" fill="#8BAEB2"/>
<path d="M254.611 376L255.06 376.667L254.611 376ZM262.994 376.222L263.293 376.445L262.994 376.222Z" fill="#C0DBDD"/>
<path d="M255.359 376.889L255.658 377.111L255.359 376.889Z" fill="#8BAEB2"/>
<path d="M255.958 376.667L256.407 377.333L255.958 376.667ZM261.796 376.667L262.246 377.333L261.796 376.667Z" fill="#C0DBDD"/>
<path d="M256.407 377.333L256.856 378L256.407 377.333Z" fill="#8BAEB2"/>
<path d="M257.156 377.555L257.455 377.778L257.156 377.555ZM260.749 377.555L261.048 377.778L260.749 377.555Z" fill="#C0DBDD"/>
<path d="M257.754 378L258.204 378.667L257.754 378Z" fill="#8BAEB2"/>
<path d="M258.204 378L258.653 378.667L258.204 378ZM259.401 378.222L259.7 378.445L259.401 378.222Z" fill="#C0DBDD"/>
<path d="M250.015 35.1191C241.263 37.3001 232.17 52.5402 226.011 58.7732C214.463 70.4602 201.617 81.7602 191.544 94.7732C181.301 108.005 173.258 123.614 164.334 137.773C150.634 159.509 142.059 179.609 133.671 203.773C121.599 238.546 113.681 271.519 107.601 307.773C105.341 321.253 100.176 337.114 101.112 350.773C102.926 377.229 116.356 403.964 132.591 423.773C138.045 430.428 143.124 438.936 150.054 444.136C176.438 463.934 205.472 470.677 237.015 475.853C260.729 479.745 286.673 474.923 310.015 469.093C318.796 466.9 327.129 460.41 335.015 456.079C343.221 451.572 353.582 447.451 360.551 441.163C385.705 418.472 403.444 382.604 406.601 348.773C407.17 342.668 404.52 335.761 403.439 329.773C401.09 316.751 398.57 303.757 396.016 290.773C384.998 234.775 369.12 180.667 337.348 132.773C328.876 120.003 321.496 105.545 311.689 93.7732C300.69 80.5682 287.166 68.9242 275.015 56.7732C269.35 51.1082 263.739 45.3832 258.015 39.7782C255.992 37.7972 253.253 34.3121 250.015 35.1191Z" fill="#729397"/>
<path d="M254.42 133C232.477 160.037 198.66 189.49 189.269 224C183.57 244.943 178.636 266.123 172.71 287C170.105 296.179 164.111 309.469 165.111 319C167.019 337.177 177.214 356.409 182.279 374C184.25 380.845 186.03 393.344 190.933 398.581C196.732 404.775 211.535 407.111 219.42 410.05C230.618 414.225 244.498 422.045 256.42 423.066C261.995 423.543 268.319 419.569 273.42 417.681C284.8 413.469 296.14 409.073 307.42 404.601C311.948 402.806 318.328 401.642 321.99 398.301C325.678 394.936 326.382 387.63 327.547 383C330.405 371.637 333.511 360.311 336.571 349C339.011 339.981 343.82 329.397 343.82 320C343.82 303.35 335.341 283.192 331.293 267C327.456 251.651 325.279 234.727 319.493 220C310.877 198.069 295.883 180.656 280.841 163C272.405 153.098 264.234 141.518 254.42 133Z" fill="#ECFFFF"/>
</g>
<defs>
<filter id="filter0_d_2_90" x="0" y="0" width="520" height="520" filterUnits="userSpaceOnUse" color-interpolation-filters="sRGB">
<feFlood flood-opacity="0" result="BackgroundImageFix"/>
<feColorMatrix in="SourceAlpha" type="matrix" values="0 0 0 0 0 0 0 0 0 0 0 0 0 0 0 0 0 0 127 0" result="hardAlpha"/>
<feOffset dy="4"/>
<feGaussianBlur stdDeviation="2"/>
<feComposite in2="hardAlpha" operator="out"/>
<feColorMatrix type="matrix" values="0 0 0 0 0 0 0 0 0 0 0 0 0 0 0 0 0 0 0.25 0"/>
<feBlend mode="normal" in2="BackgroundImageFix" result="effect1_dropShadow_2_90"/>
<feBlend mode="normal" in="SourceGraphic" in2="effect1_dropShadow_2_90" result="shape"/>
</filter>
</defs>
</svg>
