<svg width="512" height="512" viewBox="0 0 512 512" fill="none" xmlns="http://www.w3.org/2000/svg">
<path d="M151.444 44.6288C148.504 46.287 146.493 50.4627 144.575 53.1273C139.999 59.4833 135.53 65.9159 130.985 72.2932C123.546 82.7301 111.094 95.0382 106.778 107.076C103.108 117.31 106.257 133.827 106.257 144.698V229.17C106.257 270.383 105.542 311.49 105.542 352.684V388.177C105.542 393.374 104.362 400.25 106.045 405.213C109.059 414.103 118.045 423.052 123.403 430.768C129.657 439.774 136.085 448.677 142.251 457.742C144.388 460.882 147.22 467.086 150.83 468.672C153.863 470.003 158.777 469.1 162.04 469.1H186.355H272.174H335.108C341.943 469.1 354.734 471.548 360.825 468.37C363.996 466.716 365.83 462.678 367.805 459.872C372.289 453.501 376.662 447.05 381.182 440.706C388.662 430.207 401.308 417.418 405.407 405.213C408.67 395.496 405.909 380.672 405.909 370.43C405.909 343.46 405.196 316.417 405.194 289.507V162.444V124.822C405.194 119.477 406.493 112.15 404.673 107.076C401.225 97.4588 391.414 87.7218 385.473 79.3917L368.309 55.2568C365.998 52.0163 363.568 46.6372 360.007 44.6288C357.36 43.1361 353.063 43.8992 350.127 43.8992H326.526H240.707H176.343C169.916 43.8992 157.074 41.4536 151.444 44.6288Z" fill="#729397"/>
<path d="M189.215 98.6652C183.641 102.162 178.704 114.539 175.125 120.541C170.819 127.761 163.342 136.116 161.019 144.489C158.818 152.423 160.685 164.214 160.685 172.542V233.438C160.685 264.448 160.092 295.446 160.092 326.493C160.092 338.539 157.444 355.33 160.396 366.862C162.274 374.197 168.931 381.827 172.715 388.073C176.914 395.002 182.235 409.213 188.67 413.37C193.618 416.568 204.876 414.074 210.516 414.074H266.278H307.211C311.618 414.074 319.819 415.89 323.718 413.37C329.075 409.91 333.258 398.58 336.788 392.863C341.404 385.387 349.738 375.661 351.991 366.862C354.067 358.756 352.296 347.259 352.296 338.809V278.597C352.296 249.853 351.702 221.158 351.702 192.385V160.226C351.702 155.378 352.594 149.161 351.398 144.489C349.764 138.106 344.023 131.409 340.681 126.015C336.603 119.433 332.635 112.763 328.567 106.173C327.11 103.813 325.422 99.5923 323.034 98.3744C317.488 95.5445 306.754 97.9618 300.685 97.9618H246.109H205.77C201.3 97.9618 193.196 96.1671 189.215 98.6652Z" fill="#E7FFFF"/>
</svg>
