<svg width="203" height="189" viewBox="0 0 203 189" fill="none" xmlns="http://www.w3.org/2000/svg">
<path d="M100.815 0C91.6971 15.1006 83.8619 31.3836 75.5488 47.0313C60.8707 74.659 46.0193 102.184 31.2092 129.728C24.1195 142.913 17.1471 156.181 9.9735 169.313C6.86223 175.008 1.14986 182.395 0 188.909H202.347C201.041 182.673 195.946 175.978 192.947 170.488C186.263 158.252 179.628 145.971 173.08 133.647C157.339 104.018 141.105 74.7009 125.364 45.0716C119.865 34.7212 114.343 24.3716 108.708 14.1094C106.225 9.58771 104.12 3.84363 100.815 0Z" fill="#719196"/>
<path d="M100.579 45C82.8233 76.5783 65.1068 107.685 49.5408 140.63C45.1229 149.98 39.7172 159.146 36 168.849L100.938 171.977L165.875 168.849C152.826 138.316 137.113 108.456 120.822 79.8815C116.353 72.0426 111.905 64.1895 107.414 56.3659C105.311 52.7033 103.423 48.0108 100.579 45Z" fill="#EAFFFF"/>
</svg>
